<svg xmlns="http://www.w3.org/2000/svg" viewBox="0 0 640 480" role="img" aria-labelledby="title description">
  <title id="title">PC component</title>
  <desc id="description">Generic PC component image placeholder</desc>
  <defs>
    <linearGradient id="background" x1="0" y1="0" x2="1" y2="1">
      <stop offset="0" stop-color="#123b3d"/>
      <stop offset="0.52" stop-color="#101827"/>
      <stop offset="1" stop-color="#030712"/>
    </linearGradient>
    <linearGradient id="chip" x1="0" y1="0" x2="1" y2="1">
      <stop offset="0" stop-color="#2dd4bf"/>
      <stop offset="1" stop-color="#0f766e"/>
    </linearGradient>
  </defs>
  <rect width="640" height="480" rx="36" fill="url(#background)"/>
  <g fill="none" stroke="#5eead4" stroke-linecap="round" stroke-width="8" opacity=".5">
    <path d="M130 150h76M130 240h76M130 330h76M434 150h76M434 240h76M434 330h76"/>
    <path d="M230 72v72M320 72v72M410 72v72M230 336v72M320 336v72M410 336v72"/>
  </g>
  <rect x="196" y="116" width="248" height="248" rx="38" fill="#0f172a" stroke="#2dd4bf" stroke-width="6"/>
  <rect x="244" y="164" width="152" height="152" rx="24" fill="url(#chip)"/>
  <path d="M286 210h68v20h-24v58h-20v-58h-24z" fill="#ccfbf1"/>
  <text x="320" y="440" fill="#99f6e4" font-family="Arial, sans-serif" font-size="24" font-weight="700" letter-spacing="6" text-anchor="middle">PC PART</text>
</svg>
